<svg xmlns="http://www.w3.org/2000/svg" xmlns:xlink="http://www.w3.org/1999/xlink" contentStyleType="text/css" data-diagram-type="DESCRIPTION" height="1576px" preserveAspectRatio="none" style="width:1607px;height:1576px;background:#FFFFFF;" version="1.1" viewBox="0 0 1607 1576" width="1607px" zoomAndPan="magnify"><title>&lt;size:16&gt;&lt;b&gt;Sunrise Dental Clinic Management System&lt;/b&gt;&lt;/size&gt;</title><defs/><g><g class="title" data-source-line="28"><text fill="#000000" font-family="Times New Roman" font-size="16" font-weight="bold" lengthAdjust="spacing" textLength="383.2813" x="607.5979" y="29.8516">Sunrise Dental Clinic Management System</text><text fill="#000000" font-family="Times New Roman" font-size="13" font-weight="bold" lengthAdjust="spacing" textLength="133.085" x="732.696" y="45.6919">Use Case Diagram</text></g><!--cluster Security--><g class="cluster" data-entity="Security" data-source-line="44" data-uid="ent0009" id="cluster_Security"><path d="M523.5,343.2578 L585.1963,343.2578 A3.75,3.75 0 0 1 587.6963,345.7578 L594.6963,364.3906 L1323.5,364.3906 A2.5,2.5 0 0 1 1326,366.8906 L1326,505.7578 A2.5,2.5 0 0 1 1323.5,508.2578 L523.5,508.2578 A2.5,2.5 0 0 1 521,505.7578 L521,345.7578 A2.5,2.5 0 0 1 523.5,343.2578" fill="#FBFDFE" style="stroke:#1B4F72;stroke-width:1;"/><line style="stroke:#1B4F72;stroke-width:1;" x1="521" x2="594.6963" y1="364.3906" y2="364.3906"/><text fill="#1B4F72" font-family="Times New Roman" font-size="13" font-weight="bold" lengthAdjust="spacing" textLength="60.6963" x="525" y="357.3247">Security</text></g><!--cluster Patient & Appointment--><g class="cluster" data-entity="Patient . Appointment" data-source-line="51" data-uid="ent0014" id="cluster_Patient . Appointment"><path d="M814.5,884.2578 L984.5063,884.2578 A3.75,3.75 0 0 1 987.0063,886.7578 L994.0063,905.3906 L1347.5,905.3906 A2.5,2.5 0 0 1 1350,907.8906 L1350,1236.7578 A2.5,2.5 0 0 1 1347.5,1239.2578 L814.5,1239.2578 A2.5,2.5 0 0 1 812,1236.7578 L812,886.7578 A2.5,2.5 0 0 1 814.5,884.2578" fill="#FBFDFE" style="stroke:#1B4F72;stroke-width:1;"/><line style="stroke:#1B4F72;stroke-width:1;" x1="812" x2="994.0063" y1="905.3906" y2="905.3906"/><text fill="#1B4F72" font-family="Times New Roman" font-size="13" font-weight="bold" lengthAdjust="spacing" textLength="169.0063" x="816" y="898.3247">Patient &amp; Appointment</text></g><!--cluster Billing--><g class="cluster" data-entity="Billing" data-source-line="60" data-uid="ent0021" id="cluster_Billing"><path d="M207.5,1265.2578 L254.7935,1265.2578 A3.75,3.75 0 0 1 257.2935,1267.7578 L264.2935,1286.3906 L1028.5,1286.3906 A2.5,2.5 0 0 1 1031,1288.8906 L1031,1423.7578 A2.5,2.5 0 0 1 1028.5,1426.2578 L207.5,1426.2578 A2.5,2.5 0 0 1 205,1423.7578 L205,1267.7578 A2.5,2.5 0 0 1 207.5,1265.2578" fill="#FBFDFE" style="stroke:#1B4F72;stroke-width:1;"/><line style="stroke:#1B4F72;stroke-width:1;" x1="205" x2="264.2935" y1="1286.3906" y2="1286.3906"/><text fill="#1B4F72" font-family="Times New Roman" font-size="13" font-weight="bold" lengthAdjust="spacing" textLength="46.2935" x="209" y="1279.3247">Billing</text></g><!--cluster Administration--><g class="cluster" data-entity="Administration" data-source-line="67" data-uid="ent0026" id="cluster_Administration"><path d="M185,137.2578 L295.0718,137.2578 A3.75,3.75 0 0 1 297.5718,139.7578 L304.5718,158.3906 L401,158.3906 A2.5,2.5 0 0 1 403.5,160.8906 L403.5,477.7578 A2.5,2.5 0 0 1 401,480.2578 L185,480.2578 A2.5,2.5 0 0 1 182.5,477.7578 L182.5,139.7578 A2.5,2.5 0 0 1 185,137.2578" fill="#FBFDFE" style="stroke:#1B4F72;stroke-width:1;"/><line style="stroke:#1B4F72;stroke-width:1;" x1="182.5" x2="304.5718" y1="158.3906" y2="158.3906"/><text fill="#1B4F72" font-family="Times New Roman" font-size="13" font-weight="bold" lengthAdjust="spacing" textLength="109.0718" x="186.5" y="151.3247">Administration</text></g><!--cluster Support--><g class="cluster" data-entity="Support" data-source-line="74" data-uid="ent0031" id="cluster_Support"><path d="M524.5,532.2578 L584.2856,532.2578 A3.75,3.75 0 0 1 586.7856,534.7578 L593.7856,553.3906 L709.5,553.3906 A2.5,2.5 0 0 1 712,555.8906 L712,775.7578 A2.5,2.5 0 0 1 709.5,778.2578 L524.5,778.2578 A2.5,2.5 0 0 1 522,775.7578 L522,534.7578 A2.5,2.5 0 0 1 524.5,532.2578" fill="#FBFDFE" style="stroke:#1B4F72;stroke-width:1;"/><line style="stroke:#1B4F72;stroke-width:1;" x1="522" x2="593.7856" y1="553.3906" y2="553.3906"/><text fill="#1B4F72" font-family="Times New Roman" font-size="13" font-weight="bold" lengthAdjust="spacing" textLength="58.7856" x="526" y="546.3247">Support</text></g><!--entity UC1--><g class="entity" data-entity="UC1" data-source-line="45" data-uid="ent0010" id="entity_UC1"><ellipse cx="617.2482" cy="476.2075" fill="#EAF2F8" rx="67.7482" ry="15.9496" style="stroke:#1B4F72;stroke-width:1.2;"/><text fill="#1C2833" font-family="Times New Roman" font-size="13" lengthAdjust="spacing" textLength="105.0918" x="564.7023" y="480.2739">Login to System</text></g><!--entity UC2--><g class="entity" data-entity="UC2" data-source-line="46" data-uid="ent0011" id="entity_UC2"><ellipse cx="930.8564" cy="447.4291" fill="#EAF2F8" rx="78.8564" ry="18.1713" style="stroke:#1B4F72;stroke-width:1.2;"/><text fill="#1C2833" font-family="Times New Roman" font-size="13" lengthAdjust="spacing" textLength="131.498" x="865.1074" y="451.4955">Validate Credentials</text></g><!--entity UC3--><g class="entity" data-entity="UC3" data-source-line="47" data-uid="ent0012" id="entity_UC3"><ellipse cx="1249.545" cy="447.2668" fill="#EAF2F8" rx="60.545" ry="14.509" style="stroke:#1B4F72;stroke-width:1.2;"/><text fill="#1C2833" font-family="Times New Roman" font-size="13" lengthAdjust="spacing" textLength="86.7217" x="1206.1841" y="451.3332">Lock Account</text></g><!--entity UC4--><g class="entity" data-entity="UC4" data-source-line="48" data-uid="ent0013" id="entity_UC4"><ellipse cx="617.2083" cy="396.1995" fill="#EAF2F8" rx="80.2083" ry="18.4417" style="stroke:#1B4F72;stroke-width:1.2;"/><text fill="#1C2833" font-family="Times New Roman" font-size="13" lengthAdjust="spacing" textLength="134.6084" x="549.9041" y="400.2659">Logout / Exit System</text></g><!--entity UC5--><g class="entity" data-entity="UC5" data-source-line="52" data-uid="ent0015" id="entity_UC5"><ellipse cx="1249.5674" cy="1198.3713" fill="#EAF2F8" rx="81.0674" ry="18.6135" style="stroke:#1B4F72;stroke-width:1.2;"/><text fill="#1C2833" font-family="Times New Roman" font-size="13" lengthAdjust="spacing" textLength="136.5762" x="1181.2794" y="1202.4377">Register New Patient</text></g><!--entity UC6--><g class="entity" data-entity="UC6" data-source-line="53" data-uid="ent0016" id="entity_UC6"><ellipse cx="930.8394" cy="1110.3257" fill="#EAF2F8" rx="98.3394" ry="22.0679" style="stroke:#1B4F72;stroke-width:1.2;"/><text fill="#1C2833" font-family="Times New Roman" font-size="13" lengthAdjust="spacing" textLength="175.0239" x="843.3275" y="1114.3921">Register New Appointment</text></g><!--entity UC7--><g class="entity" data-entity="UC7" data-source-line="54" data-uid="ent0017" id="entity_UC7"><ellipse cx="1249.6842" cy="1110.0946" fill="#EAF2F8" rx="84.6842" ry="19.3368" style="stroke:#1B4F72;stroke-width:1.2;"/><text fill="#1C2833" font-family="Times New Roman" font-size="13" lengthAdjust="spacing" textLength="144.79" x="1177.2891" y="1114.1611">Check Slot Availability</text></g><!--entity UC8--><g class="entity" data-entity="UC8" data-source-line="55" data-uid="ent0018" id="entity_UC8"><ellipse cx="931.1914" cy="1200.2961" fill="#EAF2F8" rx="103.1914" ry="23.0383" style="stroke:#1B4F72;stroke-width:1.2;"/><text fill="#1C2833" font-family="Times New Roman" font-size="13" lengthAdjust="spacing" textLength="185.5483" x="838.4172" y="1204.3625">Display Appointment Details</text></g><!--entity UC9--><g class="entity" data-entity="UC9" data-source-line="56" data-uid="ent0019" id="entity_UC9"><ellipse cx="930.7777" cy="937.0134" fill="#EAF2F8" rx="79.2777" ry="18.2555" style="stroke:#1B4F72;stroke-width:1.2;"/><text fill="#1C2833" font-family="Times New Roman" font-size="13" lengthAdjust="spacing" textLength="132.4692" x="864.5431" y="941.0798">Cancel Appointment</text></g><!--entity UC10--><g class="entity" data-entity="UC10" data-source-line="57" data-uid="ent0020" id="entity_UC10"><ellipse cx="931.1788" cy="1022.2936" fill="#EAF2F8" rx="93.1788" ry="21.0358" style="stroke:#1B4F72;stroke-width:1.2;"/><text fill="#1C2833" font-family="Times New Roman" font-size="13" lengthAdjust="spacing" textLength="163.7188" x="849.3194" y="1026.36">Reschedule Appointment</text></g><!--entity UC11--><g class="entity" data-entity="UC11" data-source-line="61" data-uid="ent0022" id="entity_UC11"><ellipse cx="616.7505" cy="1317.1079" fill="#EAF2F8" rx="59.7505" ry="14.3501" style="stroke:#1B4F72;stroke-width:1.2;"/><text fill="#1C2833" font-family="Times New Roman" font-size="13" lengthAdjust="spacing" textLength="84.6016" x="574.4497" y="1321.1743">Calculate Bill</text></g><!--entity UC12--><g class="entity" data-entity="UC12" data-source-line="62" data-uid="ent0023" id="entity_UC12"><ellipse cx="931.0856" cy="1318.4749" fill="#EAF2F8" rx="84.0856" ry="19.2171" style="stroke:#1B4F72;stroke-width:1.2;"/><text fill="#1C2833" font-family="Times New Roman" font-size="13" lengthAdjust="spacing" textLength="143.438" x="859.3666" y="1322.5413">Apply Senior Discount</text></g><!--entity UC13--><g class="entity" data-entity="UC13" data-source-line="63" data-uid="ent0024" id="entity_UC13"><ellipse cx="293.1642" cy="1393.0907" fill="#EAF2F8" rx="72.1642" ry="16.8328" style="stroke:#1B4F72;stroke-width:1.2;"/><text fill="#1C2833" font-family="Times New Roman" font-size="13" lengthAdjust="spacing" textLength="115.8003" x="235.2641" y="1397.1571">Print Bill / Receipt</text></g><!--entity UC14--><g class="entity" data-entity="UC14" data-source-line="64" data-uid="ent0025" id="entity_UC14"><ellipse cx="293.1711" cy="1315.392" fill="#EAF2F8" rx="68.6711" ry="16.1342" style="stroke:#1B4F72;stroke-width:1.2;"/><text fill="#1C2833" font-family="Times New Roman" font-size="13" lengthAdjust="spacing" textLength="107.3579" x="239.4921" y="1319.4584">Record Payment</text></g><!--entity UC15--><g class="entity" data-entity="UC15" data-source-line="68" data-uid="ent0027" id="entity_UC15"><ellipse cx="292.9399" cy="191.0458" fill="#EAF2F8" rx="86.9399" ry="19.788" style="stroke:#1B4F72;stroke-width:1.2;"/><text fill="#1C2833" font-family="Times New Roman" font-size="13" lengthAdjust="spacing" textLength="149.8618" x="218.009" y="195.1122">Manage Staff Accounts</text></g><!--entity UC16--><g class="entity" data-entity="UC16" data-source-line="69" data-uid="ent0028" id="entity_UC16"><ellipse cx="292.9888" cy="276.4556" fill="#EAF2F8" rx="88.9888" ry="20.1978" style="stroke:#1B4F72;stroke-width:1.2;"/><text fill="#1C2833" font-family="Times New Roman" font-size="13" lengthAdjust="spacing" textLength="154.4385" x="215.7696" y="280.522">Manage Dentist Profiles</text></g><!--entity UC17--><g class="entity" data-entity="UC17" data-source-line="70" data-uid="ent0029" id="entity_UC17"><ellipse cx="293.1536" cy="363.0885" fill="#EAF2F8" rx="94.6536" ry="21.3307" style="stroke:#1B4F72;stroke-width:1.2;"/><text fill="#1C2833" font-family="Times New Roman" font-size="13" lengthAdjust="spacing" textLength="166.9624" x="209.6724" y="367.1549">Manage Treatment Prices</text></g><!--entity UC18--><g class="entity" data-entity="UC18" data-source-line="71" data-uid="ent0030" id="entity_UC18"><ellipse cx="292.9545" cy="447.0487" fill="#EAF2F8" rx="71.9545" ry="16.7909" style="stroke:#1B4F72;stroke-width:1.2;"/><text fill="#1C2833" font-family="Times New Roman" font-size="13" lengthAdjust="spacing" textLength="115.2988" x="235.305" y="451.1151">Generate Reports</text></g><!--entity UC19--><g class="entity" data-entity="UC19" data-source-line="75" data-uid="ent0032" id="entity_UC19"><ellipse cx="616.8085" cy="583.2195" fill="#EAF2F8" rx="72.8085" ry="16.9617" style="stroke:#1B4F72;stroke-width:1.2;"/><text fill="#1C2833" font-family="Times New Roman" font-size="13" lengthAdjust="spacing" textLength="117.3364" x="558.1403" y="587.2859">View Help Section</text></g><!--entity UC20--><g class="entity" data-entity="UC20" data-source-line="76" data-uid="ent0033" id="entity_UC20"><ellipse cx="616.9496" cy="663.1477" fill="#EAF2F8" rx="77.4496" ry="17.8899" style="stroke:#1B4F72;stroke-width:1.2;"/><text fill="#1C2833" font-family="Times New Roman" font-size="13" lengthAdjust="spacing" textLength="128.2417" x="552.8288" y="667.2141">View Own Schedule</text></g><!--entity UC21--><g class="entity" data-entity="UC21" data-source-line="77" data-uid="ent0034" id="entity_UC21"><ellipse cx="616.8564" cy="744.4291" fill="#EAF2F8" rx="78.8564" ry="18.1713" style="stroke:#1B4F72;stroke-width:1.2;"/><text fill="#1C2833" font-family="Times New Roman" font-size="13" lengthAdjust="spacing" textLength="131.498" x="551.1074" y="748.4955">View Patient History</text></g><!--entity Staff--><g class="entity" data-entity="Staff" data-source-line="34" data-uid="ent0002" id="entity_Staff"><ellipse cx="292.8306" cy="518.2578" fill="#FDF2E3" rx="8" ry="8" style="stroke:#1B4F72;stroke-width:1;"/><path d="M292.8306,526.2578 L292.8306,553.2578 M279.8306,534.2578 L305.8306,534.2578 M292.8306,553.2578 L279.8306,568.2578 M292.8306,553.2578 L305.8306,568.2578" fill="none" style="stroke:#1B4F72;stroke-width:1;"/><text fill="#1C2833" font-family="Times New Roman" font-size="13" font-weight="bold" lengthAdjust="spacing" textLength="35.6611" x="275" y="582.3247">Staff</text></g><!--entity Admin--><g class="entity" data-entity="Admin" data-source-line="35" data-uid="ent0003" id="entity_Admin"><ellipse cx="61.886" cy="334.2578" fill="#EAF2F8" rx="8" ry="8" style="stroke:#1B4F72;stroke-width:1;"/><path d="M61.886,342.2578 L61.886,369.2578 M48.886,350.2578 L74.886,350.2578 M61.886,369.2578 L48.886,384.2578 M61.886,369.2578 L74.886,384.2578" fill="none" style="stroke:#1B4F72;stroke-width:1;"/><text fill="#1C2833" font-family="Times New Roman" font-size="13" font-weight="bold" lengthAdjust="spacing" textLength="101.772" x="11" y="398.3247">Administrator</text></g><!--entity Recep--><g class="entity" data-entity="Recep" data-source-line="36" data-uid="ent0004" id="entity_Recep"><ellipse cx="61.9602" cy="1202.2578" fill="#EAF2F8" rx="8" ry="8" style="stroke:#1B4F72;stroke-width:1;"/><path d="M61.9602,1210.2578 L61.9602,1237.2578 M48.9602,1218.2578 L74.9602,1218.2578 M61.9602,1237.2578 L48.9602,1252.2578 M61.9602,1237.2578 L74.9602,1252.2578" fill="none" style="stroke:#1B4F72;stroke-width:1;"/><text fill="#1C2833" font-family="Times New Roman" font-size="13" font-weight="bold" lengthAdjust="spacing" textLength="91.9204" x="16" y="1266.3247">Receptionist</text></g><!--entity Dentist--><g class="entity" data-entity="Dentist" data-source-line="37" data-uid="ent0005" id="entity_Dentist"><ellipse cx="62.2427" cy="670.2578" fill="#EAF2F8" rx="8" ry="8" style="stroke:#1B4F72;stroke-width:1;"/><path d="M62.2427,678.2578 L62.2427,705.2578 M49.2427,686.2578 L75.2427,686.2578 M62.2427,705.2578 L49.2427,720.2578 M62.2427,705.2578 L75.2427,720.2578" fill="none" style="stroke:#1B4F72;stroke-width:1;"/><text fill="#1C2833" font-family="Times New Roman" font-size="13" font-weight="bold" lengthAdjust="spacing" textLength="53.4854" x="35.5" y="734.3247">Dentist</text></g><g class="entity" data-entity="GMN60" data-source-line="112" data-uid="ent0061" id="entity_GMN60"><path d="M1401,1082.7578 L1401,1106.2578 L1334.11,1110.2578 L1401,1114.2578 L1401,1138.1563 A0,0 0 0 0 1401,1138.1563 L1600.4771,1138.1563 A0,0 0 0 0 1600.4771,1138.1563 L1600.4771,1092.7578 L1590.4771,1082.7578 L1401,1082.7578 A0,0 0 0 0 1401,1082.7578" fill="#FDF2E3" style="stroke:#000000;stroke-width:1;"/><path d="M1590.4771,1082.7578 L1590.4771,1092.7578 L1600.4771,1092.7578 L1590.4771,1082.7578" fill="#FDF2E3" style="stroke:#000000;stroke-width:1;"/><text fill="#000000" font-family="Times New Roman" font-size="13" lengthAdjust="spacing" textLength="178.4771" x="1407" y="1099.8247">Prevents double booking &#8212;</text><text fill="#000000" font-family="Times New Roman" font-size="13" lengthAdjust="spacing" textLength="157.4346" x="1407" y="1114.9575">the core problem stated</text><text fill="#000000" font-family="Times New Roman" font-size="13" lengthAdjust="spacing" textLength="96.4844" x="1407" y="1130.0903">in the scenario</text></g><g class="entity" data-entity="GMN63" data-source-line="118" data-uid="ent0064" id="entity_GMN63"><path d="M180,65.7578 L180,121.1563 A0,0 0 0 0 180,121.1563 L289,121.1563 L293,170.9678 L297,121.1563 L405.731,121.1563 A0,0 0 0 0 405.731,121.1563 L405.731,75.7578 L395.731,65.7578 L180,65.7578 A0,0 0 0 0 180,65.7578" fill="#FDF2E3" style="stroke:#000000;stroke-width:1;"/><path d="M395.731,65.7578 L395.731,75.7578 L405.731,75.7578 L395.731,65.7578" fill="#FDF2E3" style="stroke:#000000;stroke-width:1;"/><text fill="#000000" font-family="Times New Roman" font-size="13" font-weight="bold" lengthAdjust="spacing" textLength="91.6982" x="186" y="82.8247">Assumption:</text><text fill="#000000" font-family="Times New Roman" font-size="13" lengthAdjust="spacing" textLength="73.3345" x="281.8306" y="82.8247">Three roles</text><text fill="#000000" font-family="Times New Roman" font-size="13" lengthAdjust="spacing" textLength="204.731" x="186" y="97.9575">(Admin / Receptionist / Dentist)</text><text fill="#000000" font-family="Times New Roman" font-size="13" lengthAdjust="spacing" textLength="183.3584" x="186" y="113.0903">enforce separation of duties</text></g><!--link Admin to Staff--><g class="link" data-entity-1="Admin" data-entity-2="Staff" data-source-line="39" data-uid="lnk6" id="link_Admin_Staff"><path d="M92.93,401.4478 C113.96,426.6678 143.73,459.3578 174.5,483.2578 C206.97,508.4778 234.2353,522.1662 258.1353,532.6862" fill="none" id="Admin-to-Staff" style="stroke:#1B4F72;stroke-width:1.2;"/><polygon fill="none" points="274.61,539.9378,260.5525,527.1947,255.7181,538.1778,274.61,539.9378" style="stroke:#1B4F72;stroke-width:1.2;"/></g><!--link Recep to Staff--><g class="link" data-entity-1="Recep" data-entity-2="Staff" data-source-line="40" data-uid="lnk7" id="link_Recep_Staff"><path d="M70.81,1193.1278 C83.85,1131.4578 112.02,1006.3178 146,903.2578 C185.33,783.9878 238.1341,664.2628 267.3941,600.3828" fill="none" id="Recep-to-Staff" style="stroke:#1B4F72;stroke-width:1.2;"/><polygon fill="none" points="274.89,584.0178,261.9391,597.8841,272.8491,602.8814,274.89,584.0178" style="stroke:#1B4F72;stroke-width:1.2;"/></g><!--link Dentist to Staff--><g class="link" data-entity-1="Dentist" data-entity-2="Staff" data-source-line="41" data-uid="lnk8" id="link_Dentist_Staff"><path d="M88.78,670.3078 C104.29,653.9878 125.04,633.9878 146,619.2578 C189.01,589.0378 229.8204,571.2584 258.1004,560.2284" fill="none" id="Dentist-to-Staff" style="stroke:#1B4F72;stroke-width:1.2;"/><polygon fill="none" points="274.87,553.6878,255.9202,554.6386,260.2806,565.8183,274.87,553.6878" style="stroke:#1B4F72;stroke-width:1.2;"/></g><!--link Staff to UC1--><g class="link" data-entity-1="Staff" data-entity-2="UC1" data-source-line="80" data-uid="lnk35" id="link_Staff_UC1"><path d="M311.31,543.4378 C358.99,532.9278 487.6808,504.5498 561.0108,488.3798" fill="none" id="Staff-to-UC1" style="stroke:#1B4F72;stroke-width:1.2;"/><polygon fill="#1B4F72" points="566.87,487.0878,557.2198,485.1197,561.9873,488.1645,558.9425,492.932,566.87,487.0878" style="stroke:#1B4F72;stroke-width:1.2;"/></g><!--link Staff to UC4--><g class="link" data-entity-1="Staff" data-entity-2="UC4" data-source-line="81" data-uid="lnk36" id="link_Staff_UC4"><path d="M311.07,538.0378 C347.61,518.4278 436.31,471.6178 513,437.2578 C532.85,428.3678 549.6477,421.5118 568.4777,414.1918" fill="none" id="Staff-to-UC4" style="stroke:#1B4F72;stroke-width:1.2;"/><polygon fill="#1B4F72" points="574.07,412.0178,564.2322,411.5505,569.4097,413.8294,567.1308,419.007,574.07,412.0178" style="stroke:#1B4F72;stroke-width:1.2;"/></g><!--link Staff to UC19--><g class="link" data-entity-1="Staff" data-entity-2="UC19" data-source-line="82" data-uid="lnk37" id="link_Staff_UC19"><path d="M311.31,549.1978 C355.73,554.1578 469.5472,566.881 545.0172,575.321" fill="none" id="Staff-to-UC19" style="stroke:#1B4F72;stroke-width:1.2;"/><polygon fill="#1B4F72" points="550.98,575.9878,542.4803,571.0123,546.011,575.4321,541.5912,578.9628,550.98,575.9878" style="stroke:#1B4F72;stroke-width:1.2;"/></g><!--link Recep to UC5--><g class="link" data-entity-1="Recep" data-entity-2="UC5" data-source-line="84" data-uid="lnk38" id="link_Recep_UC5"><path d="M70.02,1269.3778 C88.72,1357.7678 148.47,1569.2578 292,1569.2578 C292,1569.2578 292,1569.2578 932,1569.2578 C1119.32,1569.2578 1217.4585,1297.861 1241.1385,1222.631" fill="none" id="Recep-to-UC5" style="stroke:#1B4F72;stroke-width:1.2;"/><polygon fill="#1B4F72" points="1242.94,1216.9078,1236.4223,1224.2916,1241.4388,1221.6771,1244.0532,1226.6936,1242.94,1216.9078" style="stroke:#1B4F72;stroke-width:1.2;"/></g><!--link Recep to UC6--><g class="link" data-entity-1="Recep" data-entity-2="UC6" data-source-line="85" data-uid="lnk39" id="link_Recep_UC6"><path d="M108.34,1216.7378 C120.48,1213.2478 133.66,1209.7878 146,1207.2578 C392.87,1156.6278 683.2788,1129.183 830.9188,1117.453" fill="none" id="Recep-to-UC6" style="stroke:#1B4F72;stroke-width:1.2;"/><polygon fill="#1B4F72" points="836.9,1116.9778,827.6115,1113.7032,831.9157,1117.3738,828.2451,1121.6781,836.9,1116.9778" style="stroke:#1B4F72;stroke-width:1.2;"/></g><!--link Recep to UC8--><g class="link" data-entity-1="Recep" data-entity-2="UC8" data-source-line="86" data-uid="lnk40" id="link_Recep_UC8"><path d="M71.98,1269.3378 C85.37,1316.4978 115.58,1394.8178 174.5,1429.2578 C279.15,1490.4278 631.46,1512.0578 720,1429.2578 C744.24,1406.5878 710.49,1307.0978 730,1280.2578 C756.72,1243.5078 797.3227,1225.1261 838.7127,1214.3761" fill="none" id="Recep-to-UC8" style="stroke:#1B4F72;stroke-width:1.2;"/><polygon fill="#1B4F72" points="844.52,1212.8678,834.8035,1211.2587,839.6806,1214.1247,836.8145,1219.0018,844.52,1212.8678" style="stroke:#1B4F72;stroke-width:1.2;"/></g><!--link Recep to UC9--><g class="link" data-entity-1="Recep" data-entity-2="UC9" data-source-line="87" data-uid="lnk41" id="link_Recep_UC9"><path d="M80.73,1193.0978 C99.12,1157.9078 131.27,1107.0278 174.5,1079.2578 C390.39,940.6078 702.1016,929.9778 846.9516,933.3578" fill="none" id="Recep-to-UC9" style="stroke:#1B4F72;stroke-width:1.2;"/><polygon fill="#1B4F72" points="852.95,933.4978,844.0458,929.2889,847.9514,933.3812,843.8591,937.2868,852.95,933.4978" style="stroke:#1B4F72;stroke-width:1.2;"/></g><!--link Recep to UC10--><g class="link" data-entity-1="Recep" data-entity-2="UC10" data-source-line="88" data-uid="lnk42" id="link_Recep_UC10"><path d="M104.24,1193.1378 C124.09,1176.8278 149.08,1159.0878 174.5,1148.2578 C399.77,1052.3278 685.8141,1029.43 832.0541,1024.01" fill="none" id="Recep-to-UC10" style="stroke:#1B4F72;stroke-width:1.2;"/><polygon fill="#1B4F72" points="838.05,1023.7878,828.908,1020.1239,833.0534,1023.973,829.2043,1028.1184,838.05,1023.7878" style="stroke:#1B4F72;stroke-width:1.2;"/></g><!--link Recep to UC11--><g class="link" data-entity-1="Recep" data-entity-2="UC11" data-source-line="89" data-uid="lnk43" id="link_Recep_UC11"><path d="M108.26,1236.0878 C174.87,1243.4178 303.15,1258.4178 411.5,1276.2578 C467.24,1285.4278 525.1155,1297.3798 566.4155,1306.3098" fill="none" id="Recep-to-UC11" style="stroke:#1B4F72;stroke-width:1.2;"/><polygon fill="#1B4F72" points="572.28,1307.5778,564.3286,1301.7661,567.3929,1306.5211,562.6379,1309.5854,572.28,1307.5778" style="stroke:#1B4F72;stroke-width:1.2;"/></g><!--link Recep to UC13--><g class="link" data-entity-1="Recep" data-entity-2="UC13" data-source-line="90" data-uid="lnk44" id="link_Recep_UC13"><path d="M89.57,1269.3078 C110.04,1296.1078 140.52,1331.0378 174.5,1353.2578 C194.25,1366.1778 212.8428,1373.6683 234.2428,1379.9483" fill="none" id="Recep-to-UC13" style="stroke:#1B4F72;stroke-width:1.2;"/><polygon fill="#1B4F72" points="240,1381.6378,232.4905,1375.2654,235.2023,1380.2299,230.2378,1382.9417,240,1381.6378" style="stroke:#1B4F72;stroke-width:1.2;"/></g><!--link Recep to UC14--><g class="link" data-entity-1="Recep" data-entity-2="UC14" data-source-line="91" data-uid="lnk45" id="link_Recep_UC14"><path d="M108.04,1250.2678 C120.3,1255.2878 133.61,1260.6078 146,1265.2578 C181.61,1278.6378 216.9429,1290.6755 246.4229,1300.4155" fill="none" id="Recep-to-UC14" style="stroke:#1B4F72;stroke-width:1.2;"/><polygon fill="#1B4F72" points="252.12,1302.2978,244.8292,1295.6763,247.3724,1300.7292,242.3195,1303.2725,252.12,1302.2978" style="stroke:#1B4F72;stroke-width:1.2;"/></g><!--link Dentist to UC20--><g class="link" data-entity-1="Dentist" data-entity-2="UC20" data-source-line="93" data-uid="lnk46" id="link_Dentist_UC20"><path d="M88.56,697.5978 C168.65,692.3778 410.7727,676.6173 536.0427,668.4673" fill="none" id="Dentist-to-UC20" style="stroke:#1B4F72;stroke-width:1.2;"/><polygon fill="#1B4F72" points="542.03,668.0778,532.7893,664.6706,537.0405,668.4024,533.3087,672.6537,542.03,668.0778" style="stroke:#1B4F72;stroke-width:1.2;"/></g><!--link Dentist to UC21--><g class="link" data-entity-1="Dentist" data-entity-2="UC21" data-source-line="94" data-uid="lnk47" id="link_Dentist_UC21"><path d="M88.56,701.3378 C168.65,707.8578 410.7798,727.5614 536.0498,737.7514" fill="none" id="Dentist-to-UC21" style="stroke:#1B4F72;stroke-width:1.2;"/><polygon fill="#1B4F72" points="542.03,738.2378,533.3839,733.5213,537.0465,737.8324,532.7353,741.495,542.03,738.2378" style="stroke:#1B4F72;stroke-width:1.2;"/></g><!--link Dentist to UC8--><g class="link" data-entity-1="Dentist" data-entity-2="UC8" data-source-line="95" data-uid="lnk48" id="link_Dentist_UC8"><path d="M88.61,711.1078 C157.58,743.3778 352.28,836.8078 504,932.2578 C644.4,1020.5878 657.93,1075.6778 804,1154.2578 C824.3,1165.1778 842.0845,1172.5625 863.1945,1179.9225" fill="none" id="Dentist-to-UC8" style="stroke:#1B4F72;stroke-width:1.2;"/><polygon fill="#1B4F72" points="868.86,1181.8978,861.6786,1175.1579,864.1387,1180.2517,859.0448,1182.7119,868.86,1181.8978" style="stroke:#1B4F72;stroke-width:1.2;"/></g><!--link Admin to UC15--><g class="link" data-entity-1="Admin" data-entity-2="UC15" data-source-line="97" data-uid="lnk49" id="link_Admin_UC15"><path d="M87.47,325.2078 C107.71,296.4178 138.86,257.7778 174.5,233.2578 C191.99,221.2278 207.6127,214.1295 227.2627,207.6395" fill="none" id="Admin-to-UC15" style="stroke:#1B4F72;stroke-width:1.2;"/><polygon fill="#1B4F72" points="232.96,205.7578,223.1596,204.7822,228.2123,207.3259,225.6685,212.3786,232.96,205.7578" style="stroke:#1B4F72;stroke-width:1.2;"/></g><!--link Admin to UC16--><g class="link" data-entity-1="Admin" data-entity-2="UC16" data-source-line="98" data-uid="lnk50" id="link_Admin_UC16"><path d="M113.35,342.2478 C124.09,337.8778 135.4,333.3478 146,329.2578 C178.58,316.6778 209.898,305.2816 238.498,295.0916" fill="none" id="Admin-to-UC16" style="stroke:#1B4F72;stroke-width:1.2;"/><polygon fill="#1B4F72" points="244.15,293.0778,234.3295,292.3305,239.44,294.7559,237.0146,299.8664,244.15,293.0778" style="stroke:#1B4F72;stroke-width:1.2;"/></g><!--link Admin to UC17--><g class="link" data-entity-1="Admin" data-entity-2="UC17" data-source-line="99" data-uid="lnk51" id="link_Admin_UC17"><path d="M113.26,363.2578 C138.14,363.2578 163.01,363.2578 192.05,363.2578" fill="none" id="Admin-to-UC17" style="stroke:#1B4F72;stroke-width:1.2;"/><polygon fill="#1B4F72" points="198.05,363.2578,189.05,359.2578,193.05,363.2578,189.05,367.2578,198.05,363.2578" style="stroke:#1B4F72;stroke-width:1.2;"/></g><!--link Admin to UC18--><g class="link" data-entity-1="Admin" data-entity-2="UC18" data-source-line="100" data-uid="lnk52" id="link_Admin_UC18"><path d="M113.04,383.5878 C132.19,391.2178 154.28,399.8278 174.5,407.2578 C199.48,416.4378 222.0182,424.1697 244.5382,431.6797" fill="none" id="Admin-to-UC18" style="stroke:#1B4F72;stroke-width:1.2;"/><polygon fill="#1B4F72" points="250.23,433.5778,242.9576,426.9361,245.4868,431.996,240.4268,434.5252,250.23,433.5778" style="stroke:#1B4F72;stroke-width:1.2;"/></g><!--link UC1 to UC2--><g class="link" data-entity-1="UC1" data-entity-2="UC2" data-source-line="102" data-uid="lnk53" id="link_UC1_UC2"><path d="M680.01,470.4978 C731.2,465.7378 797.9157,459.5328 851.7357,454.5328" fill="none" id="UC1-to-UC2" style="stroke:#1B4F72;stroke-width:1.2;stroke-dasharray:7,7;"/><polygon fill="#1B4F72" points="857.71,453.9778,848.3786,450.8275,852.7314,454.4403,849.1186,458.7932,857.71,453.9778" style="stroke:#1B4F72;stroke-width:1.2;"/><text fill="#000000" font-family="Times New Roman" font-size="13" lengthAdjust="spacing" textLength="63.0068" x="731" y="456.3247">&#171;include&#187;</text></g><!--link UC6 to UC7--><g class="link" data-entity-1="UC6" data-entity-2="UC7" data-source-line="103" data-uid="lnk54" id="link_UC6_UC7"><path d="M1029.54,1110.2578 C1072.86,1110.2578 1117.33,1110.2578 1158.9,1110.2578" fill="none" id="UC6-to-UC7" style="stroke:#1B4F72;stroke-width:1.2;stroke-dasharray:7,7;"/><polygon fill="#1B4F72" points="1164.9,1110.2578,1155.9,1106.2578,1159.9,1110.2578,1155.9,1114.2578,1164.9,1110.2578" style="stroke:#1B4F72;stroke-width:1.2;"/><text fill="#000000" font-family="Times New Roman" font-size="13" lengthAdjust="spacing" textLength="63.0068" x="1068" y="1106.3247">&#171;include&#187;</text></g><!--link UC6 to UC5--><g class="link" data-entity-1="UC6" data-entity-2="UC5" data-source-line="104" data-uid="lnk55" id="link_UC6_UC5"><path d="M993.4,1127.3278 C1052.81,1143.8478 1136.0394,1166.9903 1191.6694,1182.4603" fill="none" id="UC6-to-UC5" style="stroke:#1B4F72;stroke-width:1.2;stroke-dasharray:7,7;"/><polygon fill="#1B4F72" points="1197.45,1184.0678,1189.8507,1177.8028,1192.6328,1182.7282,1187.7073,1185.5103,1197.45,1184.0678" style="stroke:#1B4F72;stroke-width:1.2;"/><text fill="#000000" font-family="Times New Roman" font-size="13" lengthAdjust="spacing" textLength="63.0068" x="1068" y="1145.3247">&#171;include&#187;</text></g><!--link UC11 to UC8--><g class="link" data-entity-1="UC11" data-entity-2="UC8" data-source-line="105" data-uid="lnk56" id="link_UC11_UC8"><path d="M626.53,1302.8278 C642.8,1276.9078 681.06,1223.1978 730,1202.2578 C766.23,1186.7578 803.6626,1184.219 840.7726,1186.629" fill="none" id="UC11-to-UC8" style="stroke:#1B4F72;stroke-width:1.2;stroke-dasharray:7,7;"/><polygon fill="#1B4F72" points="846.76,1187.0178,838.0381,1182.443,841.7705,1186.6938,837.5197,1190.4262,846.76,1187.0178" style="stroke:#1B4F72;stroke-width:1.2;"/><text fill="#000000" font-family="Times New Roman" font-size="13" lengthAdjust="spacing" textLength="63.0068" x="731" y="1184.3247">&#171;include&#187;</text></g><!--link UC13 to UC11--><g class="link" data-entity-1="UC13" data-entity-2="UC11" data-source-line="106" data-uid="lnk57" id="link_UC13_UC11"><path d="M344.67,1381.2978 C407.72,1366.4178 508.4304,1342.6459 567.5004,1328.7059" fill="none" id="UC13-to-UC11" style="stroke:#1B4F72;stroke-width:1.2;stroke-dasharray:7,7;"/><polygon fill="#1B4F72" points="573.34,1327.3278,563.6619,1325.5019,568.4737,1328.4762,565.4993,1333.288,573.34,1327.3278" style="stroke:#1B4F72;stroke-width:1.2;"/><text fill="#000000" font-family="Times New Roman" font-size="13" lengthAdjust="spacing" textLength="63.0068" x="440" y="1340.3247">&#171;include&#187;</text></g><!--reverse link UC2 to UC3--><g class="link" data-entity-1="UC2" data-entity-2="UC3" data-source-line="108" data-uid="lnk58" id="link_UC2_UC3"><path d="M1016.24,447.2578 C1071.43,447.2578 1138.24,447.2578 1188.78,447.2578" fill="none" id="UC2-backto-UC3" style="stroke:#1B4F72;stroke-width:1.2;stroke-dasharray:7,7;"/><polygon fill="#1B4F72" points="1010.24,447.2578,1019.24,451.2578,1015.24,447.2578,1019.24,443.2578,1010.24,447.2578" style="stroke:#1B4F72;stroke-width:1.2;"/><text fill="#000000" font-family="Times New Roman" font-size="13" lengthAdjust="spacing" textLength="61.1851" x="1069" y="443.3247">&#171;extend&#187;</text></g><!--reverse link UC11 to UC12--><g class="link" data-entity-1="UC11" data-entity-2="UC12" data-source-line="109" data-uid="lnk59" id="link_UC11_UC12"><path d="M683.05,1317.4666 C731.02,1317.6166 793.24,1317.8178 846.75,1317.9878" fill="none" id="UC11-backto-UC12" style="stroke:#1B4F72;stroke-width:1.2;stroke-dasharray:7,7;"/><polygon fill="#1B4F72" points="677.05,1317.4478,686.0374,1321.4759,682.05,1317.4634,686.0625,1313.476,677.05,1317.4478" style="stroke:#1B4F72;stroke-width:1.2;"/><text fill="#000000" font-family="Times New Roman" font-size="13" lengthAdjust="spacing" textLength="61.1851" x="732" y="1314.3247">&#171;extend&#187;</text></g><!--SRC=[hLRDZjis4BxhAQOgKBI7x4R-M-_24E3rhfj3aoxMcvnweQMnJPWc1PBAncq3v27wX7sI3aLfGz5kq4DrCCpvlk7ya_pExl20K0d6PMBsN5PCimEiMR7VQbNBSg64ql3zila2XjcnKZrpkOKD4mO3fCGDguLTAcdVCTexVU87DF0Ed-5H7PXCptDN_7U4R1Y0SwtLSsi_knqjhmOn-BJZnLwYCP1T3980POKbhJyIWDiuallvSh2SEaJf4dL_Vm3dIYTR3AR3OIjRsQD0M2jH9fy3GxN1WXdytqnvPZ-kq5v5DjZsN-mjRvTto_l_P2-KzK9BBBUqcXagnqqsoMVhV5LBpId6EvIM2LW8Bda1RvaaHmuaWzNHM3pCBjVvxDBfvR_9Ld-OloV5XSlG7MTRYg1b98d0ZGMhGFFjpaB9DHQMgx09fIhHO0MZSI3KJEwTS39E4b_bT6NPPfC2Cz3yeppSBGVtmmwUbmTos5ZDQDdG6aa7FsA1bRDCb0Pj11tgOkw0zd-IDFe0yEhLdxctcJHAVL5B3qK9PRohOBh2ejRS7jEccF3IIkalQalRKsfyNbDeFtBX_IBhSpymmKjcASSQIsUGXZ7jk8Duts8FywAWZh4lctRSuOaFghPm2VUVk0qSQRWZudxknVB0B7UTy0FCgqfnQLrVd0JsY5jA2EhcB6XLqj29yJVulOrR_gJFN-oG8bm9PM7-aN71rbmq2UxuLtt-7JTqy1t3hQd8bZHDwXMcaG4c2nInAq40rt40fjXXMTD0dUZuQhu-IUKj5pHWsvFaBPWeQk5AxHXfLBuiwWio9uwmGicfYodEbw9xTjGP3vfSQ_QbYhjMvfNzchLi64TLqFb21JpsCz2oJxiZc42QivF8_4dI3c_RdoOmFpvBxyRhGQiD5-WKF7roblwaaVaAKx15G8zwucUKg5sM7x5IklKZY6vw4jsghXpp9AmFdBhs3OgAob3um7ixNP-X__eiOTMsJ9y-U7s6tetT6qg4qiUWiGQPzzCdrPrBUNDuzDUZ6BzEWfCiRoQolvv4wscqlexMrE2H88i5mrWmIeApC_UnHu8i4ap3GpdtJHC99h7WAXRG9lGBS77Hs02uWTcCoqBK9UOvOPCEk_e6DZx5igp5fcUmOOiHgOybZG-pYmjtEdj5_6HHbjsU7ie6VIYHYhhNtwfgqpZRNOX0lOyVAN46IbMlcqjVxTqRxkylVn5ARq6WqQRde5Q4qYFFqYIKXBZxY41Je6IQguHCWRFJMbihQzN1cyl6WJrwFSoDgG_D1NlZNWZmjDD8_YaQMIByw6lWJvtk6gPbMzwVY89oetH1nj6z01p56IfhQdtprP5_0000]--></g></svg>