<svg xmlns="http://www.w3.org/2000/svg" xmlns:xlink="http://www.w3.org/1999/xlink" contentStyleType="text/css" data-diagram-type="SEQUENCE" height="1052px" preserveAspectRatio="none" style="width:1322px;height:1052px;background:#FFFFFF;" version="1.1" viewBox="0 0 1322 1052" width="1322px" zoomAndPan="magnify"><title>&lt;size:16&gt;&lt;b&gt;Sequence Diagram 1 &#8212; Staff Authentication&lt;/b&gt;&lt;/size&gt;</title><defs/><g><text fill="#000000" font-family="Times New Roman" font-size="16" font-weight="bold" lengthAdjust="spacing" textLength="397.0313" x="466.3008" y="29.8516">Sequence Diagram 1 &#8212; Staff Authentication</text><g><title>LoginView</title><rect fill="#D5F0EC" height="752.2188" style="stroke:#85929E;stroke-width:1;" width="10" x="308.0469" y="149.5625"/></g><g><title>RestApiClient</title><rect fill="#D5F0EC" height="525.4375" style="stroke:#85929E;stroke-width:1;" width="10" x="500.6582" y="285.4063"/></g><g><title>AuthController</title><rect fill="#D5F0EC" height="469.5" style="stroke:#85929E;stroke-width:1;" width="10" x="662.3809" y="313.375"/></g><g><title>AuthenticationService</title><rect fill="#D5F0EC" height="413.5625" style="stroke:#85929E;stroke-width:1;" width="10" x="902.0957" y="341.3438"/></g><g><title>UserRepository</title><rect fill="#D5F0EC" height="83.9063" style="stroke:#85929E;stroke-width:1;" width="10" x="1117.9473" y="369.3125"/></g><rect fill="#FFFFFF" height="689.25" style="stroke:#000000;stroke-width:1;" width="1300.6328" x="15" y="205.5313"/><rect fill="#FFFFFF" height="645.3125" style="stroke:none;stroke-width:1;" width="1300.6328" x="15" y="249.4688"/><rect fill="#FFFFFF" height="419.5625" style="stroke:#000000;stroke-width:1;" width="1097.9473" x="25" y="468.2188"/><rect fill="#FFFFFF" height="291.7188" style="stroke:none;stroke-width:1;" width="1097.9473" x="25" y="596.0625"/><g><title>Staff</title><rect fill="#000000" fill-opacity="0.00000" height="854.0938" width="8" x="48.0625" y="119.5938"/><line style="stroke:#85929E;stroke-width:1;" x1="52" x2="52" y1="119.5938" y2="973.6875"/></g><g><title>LoginView</title><rect fill="#000000" fill-opacity="0.00000" height="854.0938" width="8" x="309.0469" y="119.5938"/><line style="stroke:#85929E;stroke-width:1;" x1="312.3848" x2="312.3848" y1="119.5938" y2="973.6875"/></g><g><title>RestApiClient</title><rect fill="#000000" fill-opacity="0.00000" height="854.0938" width="8" x="501.6582" y="119.5938"/><line style="stroke:#85929E;stroke-width:1;" x1="505.3691" x2="505.3691" y1="119.5938" y2="973.6875"/></g><g><title>AuthController</title><rect fill="#000000" fill-opacity="0.00000" height="854.0938" width="8" x="663.3809" y="119.5938"/><line style="stroke:#85929E;stroke-width:1;" x1="666.6729" x2="666.6729" y1="119.5938" y2="973.6875"/></g><g><title>AuthenticationService</title><rect fill="#000000" fill-opacity="0.00000" height="854.0938" width="8" x="903.0957" y="119.5938"/><line style="stroke:#85929E;stroke-width:1;" x1="906.876" x2="906.876" y1="119.5938" y2="973.6875"/></g><g><title>UserRepository</title><rect fill="#000000" fill-opacity="0.00000" height="854.0938" width="8" x="1118.9473" y="119.5938"/><line style="stroke:#85929E;stroke-width:1;" x1="1122.0977" x2="1122.0977" y1="119.5938" y2="973.6875"/></g><g><title>MySQL</title><rect fill="#000000" fill-opacity="0.00000" height="854.0938" width="8" x="1278.0313" y="119.5938"/><line style="stroke:#85929E;stroke-width:1;" x1="1281.4297" x2="1281.4297" y1="119.5938" y2="973.6875"/></g><g class="participant participant-head" data-participant="U"><text fill="#000000" font-family="Times New Roman" font-size="12" lengthAdjust="spacing" textLength="28.125" x="35" y="116.7637">Staff</text><ellipse cx="52.0625" cy="53.625" fill="#FDF2E3" rx="8" ry="8" style="stroke:#1B4F72;stroke-width:1;"/><path d="M52.0625,61.625 L52.0625,88.625 M39.0625,69.625 L65.0625,69.625 M52.0625,88.625 L39.0625,103.625 M52.0625,88.625 L65.0625,103.625" fill="none" style="stroke:#1B4F72;stroke-width:1;"/></g><g class="participant participant-tail" data-participant="U"><text fill="#000000" font-family="Times New Roman" font-size="12" lengthAdjust="spacing" textLength="28.125" x="35" y="983.8262">Staff</text><ellipse cx="52.0625" cy="995.6563" fill="#FDF2E3" rx="8" ry="8" style="stroke:#1B4F72;stroke-width:1;"/><path d="M52.0625,1003.6563 L52.0625,1030.6563 M39.0625,1011.6563 L65.0625,1011.6563 M52.0625,1030.6563 L39.0625,1045.6563 M52.0625,1030.6563 L65.0625,1045.6563" fill="none" style="stroke:#1B4F72;stroke-width:1;"/></g><g class="participant participant-head" data-participant="V"><rect fill="#EAF2F8" height="41.9375" rx="2.5" ry="2.5" style="stroke:#1B4F72;stroke-width:1;" width="75.3242" x="275.3848" y="76.6563"/><text fill="#000000" font-family="Times New Roman" font-size="12" lengthAdjust="spacing" textLength="61.3242" x="282.3848" y="94.7949">LoginView</text><text fill="#000000" font-family="Times New Roman" font-size="12" lengthAdjust="spacing" textLength="55.1543" x="285.4697" y="108.7637">&#171;JavaFX&#187;</text></g><g class="participant participant-tail" data-participant="V"><rect fill="#EAF2F8" height="41.9375" rx="2.5" ry="2.5" style="stroke:#1B4F72;stroke-width:1;" width="75.3242" x="275.3848" y="972.6875"/><text fill="#000000" font-family="Times New Roman" font-size="12" lengthAdjust="spacing" textLength="61.3242" x="282.3848" y="990.8262">LoginView</text><text fill="#000000" font-family="Times New Roman" font-size="12" lengthAdjust="spacing" textLength="55.1543" x="285.4697" y="1004.7949">&#171;JavaFX&#187;</text></g><g class="participant participant-head" data-participant="C"><rect fill="#EAF2F8" height="27.9688" rx="2.5" ry="2.5" style="stroke:#1B4F72;stroke-width:1;" width="94.5781" x="458.3691" y="90.625"/><text fill="#000000" font-family="Times New Roman" font-size="12" lengthAdjust="spacing" textLength="80.5781" x="465.3691" y="108.7637">RestApiClient</text></g><g class="participant participant-tail" data-participant="C"><rect fill="#EAF2F8" height="27.9688" rx="2.5" ry="2.5" style="stroke:#1B4F72;stroke-width:1;" width="94.5781" x="458.3691" y="972.6875"/><text fill="#000000" font-family="Times New Roman" font-size="12" lengthAdjust="spacing" textLength="80.5781" x="465.3691" y="990.8262">RestApiClient</text></g><g class="participant participant-head" data-participant="AC"><rect fill="#EAF2F8" height="41.9375" rx="2.5" ry="2.5" style="stroke:#1B4F72;stroke-width:1;" width="101.416" x="616.6729" y="76.6563"/><text fill="#000000" font-family="Times New Roman" font-size="12" lengthAdjust="spacing" textLength="87.416" x="623.6729" y="94.7949">AuthController</text><text fill="#000000" font-family="Times New Roman" font-size="12" lengthAdjust="spacing" textLength="45.5508" x="644.6055" y="108.7637">&#171;REST&#187;</text></g><g class="participant participant-tail" data-participant="AC"><rect fill="#EAF2F8" height="41.9375" rx="2.5" ry="2.5" style="stroke:#1B4F72;stroke-width:1;" width="101.416" x="616.6729" y="972.6875"/><text fill="#000000" font-family="Times New Roman" font-size="12" lengthAdjust="spacing" textLength="87.416" x="623.6729" y="990.8262">AuthController</text><text fill="#000000" font-family="Times New Roman" font-size="12" lengthAdjust="spacing" textLength="45.5508" x="644.6055" y="1004.7949">&#171;REST&#187;</text></g><g class="participant participant-head" data-participant="AS"><rect fill="#EAF2F8" height="27.9688" rx="2.5" ry="2.5" style="stroke:#1B4F72;stroke-width:1;" width="146.4395" x="833.876" y="90.625"/><text fill="#000000" font-family="Times New Roman" font-size="12" lengthAdjust="spacing" textLength="132.4395" x="840.876" y="108.7637">AuthenticationService</text></g><g class="participant participant-tail" data-participant="AS"><rect fill="#EAF2F8" height="27.9688" rx="2.5" ry="2.5" style="stroke:#1B4F72;stroke-width:1;" width="146.4395" x="833.876" y="972.6875"/><text fill="#000000" font-family="Times New Roman" font-size="12" lengthAdjust="spacing" textLength="132.4395" x="840.876" y="990.8262">AuthenticationService</text></g><g class="participant participant-head" data-participant="UR"><rect fill="#EAF2F8" height="27.9688" rx="2.5" ry="2.5" style="stroke:#1B4F72;stroke-width:1;" width="105.6992" x="1070.0977" y="90.625"/><text fill="#000000" font-family="Times New Roman" font-size="12" lengthAdjust="spacing" textLength="91.6992" x="1077.0977" y="108.7637">UserRepository</text></g><g class="participant participant-tail" data-participant="UR"><rect fill="#EAF2F8" height="27.9688" rx="2.5" ry="2.5" style="stroke:#1B4F72;stroke-width:1;" width="105.6992" x="1070.0977" y="972.6875"/><text fill="#000000" font-family="Times New Roman" font-size="12" lengthAdjust="spacing" textLength="91.6992" x="1077.0977" y="990.8262">UserRepository</text></g><g class="participant participant-head" data-participant="DB"><text fill="#000000" font-family="Times New Roman" font-size="12" lengthAdjust="spacing" textLength="41.2031" x="1258.4297" y="116.7637">MySQL</text><path d="M1264.0313,69.625 C1264.0313,59.625 1282.0313,59.625 1282.0313,59.625 C1282.0313,59.625 1300.0313,59.625 1300.0313,69.625 L1300.0313,95.625 C1300.0313,105.625 1282.0313,105.625 1282.0313,105.625 C1282.0313,105.625 1264.0313,105.625 1264.0313,95.625 L1264.0313,69.625" fill="#FFFFFF" style="stroke:#000000;stroke-width:1;"/><path d="M1264.0313,69.625 C1264.0313,79.625 1282.0313,79.625 1282.0313,79.625 C1282.0313,79.625 1300.0313,79.625 1300.0313,69.625" fill="none" style="stroke:#000000;stroke-width:1;"/></g><g class="participant participant-tail" data-participant="DB"><text fill="#000000" font-family="Times New Roman" font-size="12" lengthAdjust="spacing" textLength="41.2031" x="1258.4297" y="983.8262">MySQL</text><path d="M1264.0313,996.6563 C1264.0313,986.6563 1282.0313,986.6563 1282.0313,986.6563 C1282.0313,986.6563 1300.0313,986.6563 1300.0313,996.6563 L1300.0313,1022.6563 C1300.0313,1032.6563 1282.0313,1032.6563 1282.0313,1032.6563 C1282.0313,1032.6563 1264.0313,1032.6563 1264.0313,1022.6563 L1264.0313,996.6563" fill="#FFFFFF" style="stroke:#000000;stroke-width:1;"/><path d="M1264.0313,996.6563 C1264.0313,1006.6563 1282.0313,1006.6563 1282.0313,1006.6563 C1282.0313,1006.6563 1300.0313,1006.6563 1300.0313,996.6563" fill="none" style="stroke:#000000;stroke-width:1;"/></g><g><title>LoginView</title><rect fill="#D5F0EC" height="752.2188" style="stroke:#85929E;stroke-width:1;" width="10" x="308.0469" y="149.5625"/></g><g><title>RestApiClient</title><rect fill="#D5F0EC" height="525.4375" style="stroke:#85929E;stroke-width:1;" width="10" x="500.6582" y="285.4063"/></g><g><title>AuthController</title><rect fill="#D5F0EC" height="469.5" style="stroke:#85929E;stroke-width:1;" width="10" x="662.3809" y="313.375"/></g><g><title>AuthenticationService</title><rect fill="#D5F0EC" height="413.5625" style="stroke:#85929E;stroke-width:1;" width="10" x="902.0957" y="341.3438"/></g><g><title>UserRepository</title><rect fill="#D5F0EC" height="83.9063" style="stroke:#85929E;stroke-width:1;" width="10" x="1117.9473" y="369.3125"/></g><g class="message" data-participant-1="U" data-participant-2="V"><polygon fill="#1B4F72" points="296.0469,145.5625,306.0469,149.5625,296.0469,153.5625,300.0469,149.5625" style="stroke:#1B4F72;stroke-width:1;"/><line style="stroke:#1B4F72;stroke-width:1.1;" x1="52.0625" x2="302.0469" y1="149.5625" y2="149.5625"/><text fill="#000000" font-family="Times New Roman" font-size="12" lengthAdjust="spacing" textLength="170.1973" x="59.0625" y="144.7324">enter username &amp; password</text></g><g class="message" data-participant-1="V" data-participant-2="V"><line style="stroke:#1B4F72;stroke-width:1.1;" x1="318.0469" x2="360.0469" y1="177.5313" y2="177.5313"/><line style="stroke:#1B4F72;stroke-width:1.1;" x1="360.0469" x2="360.0469" y1="177.5313" y2="190.5313"/><line style="stroke:#1B4F72;stroke-width:1.1;" x1="319.0469" x2="360.0469" y1="190.5313" y2="190.5313"/><polygon fill="#1B4F72" points="329.0469,186.5313,319.0469,190.5313,329.0469,194.5313,325.0469,190.5313" style="stroke:#1B4F72;stroke-width:1;"/><text fill="#000000" font-family="Times New Roman" font-size="12" lengthAdjust="spacing" textLength="117.2637" x="325.0469" y="172.7012">validateNotEmpty()</text></g><path d="M15,205.5313 L77.9473,205.5313 L77.9473,211.5 L67.9473,221.5 L15,221.5 L15,205.5313" fill="#FFFFFF" style="stroke:#000000;stroke-width:1;"/><rect fill="none" height="689.25" style="stroke:#000000;stroke-width:1;" width="1300.6328" x="15" y="205.5313"/><text fill="#000000" font-family="Times New Roman" font-size="12" font-weight="bold" lengthAdjust="spacing" textLength="17.9473" x="30" y="217.6699">alt</text><text fill="#000000" font-family="Times New Roman" font-size="12" font-weight="bold" lengthAdjust="spacing" textLength="121.5879" x="92.9473" y="218.6699">[fields are empty]</text><g class="message" data-participant-1="V" data-participant-2="U"><polygon fill="#1B4F72" points="63.0625,237.4688,53.0625,241.4688,63.0625,245.4688,59.0625,241.4688" style="stroke:#1B4F72;stroke-width:1;"/><line style="stroke:#1B4F72;stroke-width:1.1;stroke-dasharray:2,2;" x1="57.0625" x2="307.0469" y1="241.4688" y2="241.4688"/><text fill="#000000" font-family="Times New Roman" font-size="12" lengthAdjust="spacing" textLength="214.4297" x="69.0625" y="236.6387">"Username and password required"</text></g><line style="stroke:#000000;stroke-width:1;stroke-dasharray:2,2;" x1="15" x2="1315.6328" y1="250.4688" y2="250.4688"/><text fill="#000000" font-family="Times New Roman" font-size="12" font-weight="bold" lengthAdjust="spacing" textLength="85.2012" x="20" y="261.6074">[fields valid]</text><g class="message" data-participant-1="V" data-participant-2="C"><polygon fill="#1B4F72" points="488.6582,281.4063,498.6582,285.4063,488.6582,289.4063,492.6582,285.4063" style="stroke:#1B4F72;stroke-width:1;"/><line style="stroke:#1B4F72;stroke-width:1.1;" x1="318.0469" x2="494.6582" y1="285.4063" y2="285.4063"/><text fill="#000000" font-family="Times New Roman" font-size="12" lengthAdjust="spacing" textLength="163.6113" x="325.0469" y="280.5762">login(username, password)</text></g><g class="message" data-participant-1="C" data-participant-2="AC"><polygon fill="#1B4F72" points="650.3809,309.375,660.3809,313.375,650.3809,317.375,654.3809,313.375" style="stroke:#1B4F72;stroke-width:1;"/><line style="stroke:#1B4F72;stroke-width:1.1;" x1="510.6582" x2="656.3809" y1="313.375" y2="313.375"/><text fill="#000000" font-family="Times New Roman" font-size="12" lengthAdjust="spacing" textLength="122.3789" x="517.6582" y="308.5449">POST /api/auth/login</text></g><g class="message" data-participant-1="AC" data-participant-2="AS"><polygon fill="#1B4F72" points="890.0957,337.3438,900.0957,341.3438,890.0957,345.3438,894.0957,341.3438" style="stroke:#1B4F72;stroke-width:1;"/><line style="stroke:#1B4F72;stroke-width:1.1;" x1="672.3809" x2="896.0957" y1="341.3438" y2="341.3438"/><text fill="#000000" font-family="Times New Roman" font-size="12" lengthAdjust="spacing" textLength="210.7148" x="679.3809" y="336.5137">authenticate(username, password)</text></g><g class="message" data-participant-1="AS" data-participant-2="UR"><polygon fill="#1B4F72" points="1105.9473,365.3125,1115.9473,369.3125,1105.9473,373.3125,1109.9473,369.3125" style="stroke:#1B4F72;stroke-width:1;"/><line style="stroke:#1B4F72;stroke-width:1.1;" x1="912.0957" x2="1111.9473" y1="369.3125" y2="369.3125"/><text fill="#000000" font-family="Times New Roman" font-size="12" lengthAdjust="spacing" textLength="169.0664" x="919.0957" y="364.4824">findByUsername(username)</text></g><g class="message" data-participant-1="UR" data-participant-2="DB"><polygon fill="#1B4F72" points="1270.0313,393.2813,1280.0313,397.2813,1270.0313,401.2813,1274.0313,397.2813" style="stroke:#1B4F72;stroke-width:1;"/><line style="stroke:#1B4F72;stroke-width:1.1;" x1="1127.9473" x2="1276.0313" y1="397.2813" y2="397.2813"/><text fill="#000000" font-family="Times New Roman" font-size="12" lengthAdjust="spacing" textLength="130.084" x="1134.9473" y="392.4512">SELECT * FROM users</text></g><g class="message" data-participant-1="DB" data-participant-2="UR"><polygon fill="#1B4F72" points="1138.9473,421.25,1128.9473,425.25,1138.9473,429.25,1134.9473,425.25" style="stroke:#1B4F72;stroke-width:1;"/><line style="stroke:#1B4F72;stroke-width:1.1;stroke-dasharray:2,2;" x1="1132.9473" x2="1281.0313" y1="425.25" y2="425.25"/><text fill="#000000" font-family="Times New Roman" font-size="12" lengthAdjust="spacing" textLength="68.7949" x="1144.9473" y="420.4199">user record</text></g><g class="message" data-participant-1="UR" data-participant-2="AS"><polygon fill="#1B4F72" points="923.0957,449.2188,913.0957,453.2188,923.0957,457.2188,919.0957,453.2188" style="stroke:#1B4F72;stroke-width:1;"/><line style="stroke:#1B4F72;stroke-width:1.1;stroke-dasharray:2,2;" x1="917.0957" x2="1121.9473" y1="453.2188" y2="453.2188"/><text fill="#000000" font-family="Times New Roman" font-size="12" lengthAdjust="spacing" textLength="98.1973" x="929.0957" y="448.3887">Optional&lt;User&gt;</text></g><path d="M25,468.2188 L87.9473,468.2188 L87.9473,474.1875 L77.9473,484.1875 L25,484.1875 L25,468.2188" fill="#FFFFFF" style="stroke:#000000;stroke-width:1;"/><rect fill="none" height="419.5625" style="stroke:#000000;stroke-width:1;" width="1097.9473" x="25" y="468.2188"/><text fill="#000000" font-family="Times New Roman" font-size="12" font-weight="bold" lengthAdjust="spacing" textLength="17.9473" x="40" y="480.3574">alt</text><text fill="#000000" font-family="Times New Roman" font-size="12" font-weight="bold" lengthAdjust="spacing" textLength="240.2754" x="102.9473" y="481.3574">[user not found OR account locked]</text><g class="message" data-participant-1="AS" data-participant-2="AC"><polygon fill="#1B4F72" points="683.3809,500.1563,673.3809,504.1563,683.3809,508.1563,679.3809,504.1563" style="stroke:#1B4F72;stroke-width:1;"/><line style="stroke:#1B4F72;stroke-width:1.1;stroke-dasharray:2,2;" x1="677.3809" x2="901.0957" y1="504.1563" y2="504.1563"/><text fill="#000000" font-family="Times New Roman" font-size="12" lengthAdjust="spacing" textLength="147.3574" x="689.3809" y="499.3262">AuthenticationException</text></g><g class="message" data-participant-1="AC" data-participant-2="C"><polygon fill="#1B4F72" points="521.6582,528.125,511.6582,532.125,521.6582,536.125,517.6582,532.125" style="stroke:#1B4F72;stroke-width:1;"/><line style="stroke:#1B4F72;stroke-width:1.1;stroke-dasharray:2,2;" x1="515.6582" x2="661.3809" y1="532.125" y2="532.125"/><text fill="#000000" font-family="Times New Roman" font-size="12" lengthAdjust="spacing" textLength="107.2852" x="527.6582" y="527.2949">401 Unauthorized</text></g><g class="message" data-participant-1="C" data-participant-2="V"><polygon fill="#1B4F72" points="329.0469,556.0938,319.0469,560.0938,329.0469,564.0938,325.0469,560.0938" style="stroke:#1B4F72;stroke-width:1;"/><line style="stroke:#1B4F72;stroke-width:1.1;stroke-dasharray:2,2;" x1="323.0469" x2="499.6582" y1="560.0938" y2="560.0938"/><text fill="#000000" font-family="Times New Roman" font-size="12" lengthAdjust="spacing" textLength="29.5254" x="335.0469" y="555.2637">error</text></g><g class="message" data-participant-1="V" data-participant-2="U"><polygon fill="#1B4F72" points="63.0625,584.0625,53.0625,588.0625,63.0625,592.0625,59.0625,588.0625" style="stroke:#1B4F72;stroke-width:1;"/><line style="stroke:#1B4F72;stroke-width:1.1;stroke-dasharray:2,2;" x1="57.0625" x2="307.0469" y1="588.0625" y2="588.0625"/><text fill="#000000" font-family="Times New Roman" font-size="12" lengthAdjust="spacing" textLength="231.9844" x="69.0625" y="583.2324">"Invalid credentials or account locked"</text></g><line style="stroke:#000000;stroke-width:1;stroke-dasharray:2,2;" x1="25" x2="1122.9473" y1="597.0625" y2="597.0625"/><text fill="#000000" font-family="Times New Roman" font-size="12" font-weight="bold" lengthAdjust="spacing" textLength="193.9512" x="30" y="608.2012">[credentials match (BCrypt)]</text><g class="message" data-participant-1="AS" data-participant-2="AS"><line style="stroke:#1B4F72;stroke-width:1.1;" x1="912.0957" x2="954.0957" y1="632" y2="632"/><line style="stroke:#1B4F72;stroke-width:1.1;" x1="954.0957" x2="954.0957" y1="632" y2="645"/><line style="stroke:#1B4F72;stroke-width:1.1;" x1="913.0957" x2="954.0957" y1="645" y2="645"/><polygon fill="#1B4F72" points="923.0957,641,913.0957,645,923.0957,649,919.0957,645" style="stroke:#1B4F72;stroke-width:1;"/><text fill="#000000" font-family="Times New Roman" font-size="12" lengthAdjust="spacing" textLength="181.8516" x="919.0957" y="627.1699">BCrypt.verify(password, hash)</text></g><g class="message" data-participant-1="AS" data-participant-2="AS"><line style="stroke:#1B4F72;stroke-width:1.1;" x1="912.0957" x2="954.0957" y1="672.9688" y2="672.9688"/><line style="stroke:#1B4F72;stroke-width:1.1;" x1="954.0957" x2="954.0957" y1="672.9688" y2="685.9688"/><line style="stroke:#1B4F72;stroke-width:1.1;" x1="913.0957" x2="954.0957" y1="685.9688" y2="685.9688"/><polygon fill="#1B4F72" points="923.0957,681.9688,913.0957,685.9688,923.0957,689.9688,919.0957,685.9688" style="stroke:#1B4F72;stroke-width:1;"/><text fill="#000000" font-family="Times New Roman" font-size="12" lengthAdjust="spacing" textLength="131.209" x="919.0957" y="668.1387">resetFailedAttempts()</text></g><g class="message" data-participant-1="AS" data-participant-2="AS"><line style="stroke:#1B4F72;stroke-width:1.1;" x1="912.0957" x2="954.0957" y1="713.9375" y2="713.9375"/><line style="stroke:#1B4F72;stroke-width:1.1;" x1="954.0957" x2="954.0957" y1="713.9375" y2="726.9375"/><line style="stroke:#1B4F72;stroke-width:1.1;" x1="913.0957" x2="954.0957" y1="726.9375" y2="726.9375"/><polygon fill="#1B4F72" points="923.0957,722.9375,913.0957,726.9375,923.0957,730.9375,919.0957,726.9375" style="stroke:#1B4F72;stroke-width:1;"/><text fill="#000000" font-family="Times New Roman" font-size="12" lengthAdjust="spacing" textLength="144.5684" x="919.0957" y="709.1074">generateJwtToken(user)</text></g><g class="message" data-participant-1="AS" data-participant-2="AC"><polygon fill="#1B4F72" points="683.3809,750.9063,673.3809,754.9063,683.3809,758.9063,679.3809,754.9063" style="stroke:#1B4F72;stroke-width:1;"/><line style="stroke:#1B4F72;stroke-width:1.1;stroke-dasharray:2,2;" x1="677.3809" x2="906.0957" y1="754.9063" y2="754.9063"/><text fill="#000000" font-family="Times New Roman" font-size="12" lengthAdjust="spacing" textLength="101.209" x="689.3809" y="750.0762">JWT token + role</text></g><g class="message" data-participant-1="AC" data-participant-2="C"><polygon fill="#1B4F72" points="521.6582,778.875,511.6582,782.875,521.6582,786.875,517.6582,782.875" style="stroke:#1B4F72;stroke-width:1;"/><line style="stroke:#1B4F72;stroke-width:1.1;stroke-dasharray:2,2;" x1="515.6582" x2="666.3809" y1="782.875" y2="782.875"/><text fill="#000000" font-family="Times New Roman" font-size="12" lengthAdjust="spacing" textLength="127.7227" x="527.6582" y="778.0449">200 OK {token, role}</text></g><g class="message" data-participant-1="C" data-participant-2="V"><polygon fill="#1B4F72" points="329.0469,806.8438,319.0469,810.8438,329.0469,814.8438,325.0469,810.8438" style="stroke:#1B4F72;stroke-width:1;"/><line style="stroke:#1B4F72;stroke-width:1.1;stroke-dasharray:2,2;" x1="323.0469" x2="504.6582" y1="810.8438" y2="810.8438"/><text fill="#000000" font-family="Times New Roman" font-size="12" lengthAdjust="spacing" textLength="82.3945" x="335.0469" y="806.0137">SessionToken</text></g><g class="message" data-participant-1="V" data-participant-2="V"><line style="stroke:#1B4F72;stroke-width:1.1;" x1="318.0469" x2="360.0469" y1="838.8125" y2="838.8125"/><line style="stroke:#1B4F72;stroke-width:1.1;" x1="360.0469" x2="360.0469" y1="838.8125" y2="851.8125"/><line style="stroke:#1B4F72;stroke-width:1.1;" x1="319.0469" x2="360.0469" y1="851.8125" y2="851.8125"/><polygon fill="#1B4F72" points="329.0469,847.8125,319.0469,851.8125,329.0469,855.8125,325.0469,851.8125" style="stroke:#1B4F72;stroke-width:1;"/><text fill="#000000" font-family="Times New Roman" font-size="12" lengthAdjust="spacing" textLength="123.3164" x="325.0469" y="833.9824">loadDashboard(role)</text></g><g class="message" data-participant-1="V" data-participant-2="U"><polygon fill="#1B4F72" points="63.0625,875.7813,53.0625,879.7813,63.0625,883.7813,59.0625,879.7813" style="stroke:#1B4F72;stroke-width:1;"/><line style="stroke:#1B4F72;stroke-width:1.1;stroke-dasharray:2,2;" x1="57.0625" x2="307.0469" y1="879.7813" y2="879.7813"/><text fill="#000000" font-family="Times New Roman" font-size="12" lengthAdjust="spacing" textLength="181.8633" x="69.0625" y="874.9512">display role-based main menu</text></g><path d="M912,906.7813 L912,957.7813 L1129,957.7813 L1129,916.7813 L1119,906.7813 L912,906.7813" fill="#FDF2E3" style="stroke:#000000;stroke-width:1;"/><path d="M1119,906.7813 L1119,916.7813 L1129,916.7813 L1119,906.7813" fill="#FDF2E3" style="stroke:#000000;stroke-width:1;"/><text fill="#000000" font-family="Times New Roman" font-size="12" lengthAdjust="spacing" textLength="159.6973" x="918" y="922.9199">After 3 failed attempts the</text><text fill="#000000" font-family="Times New Roman" font-size="12" lengthAdjust="spacing" textLength="196.0313" x="918" y="936.8887">account is locked for 15 minutes</text><text fill="#000000" font-family="Times New Roman" font-size="12" lengthAdjust="spacing" textLength="141.7969" x="918" y="950.8574">(brute-force protection)</text><!--SRC=[XLNHhk8s47tFLqofL45xMIxitdPtXP12IAJUifSj0Tg7lfXa0Ei6ExKDB5sjj1-nNzWlwTWX4BYHYeG4ddDcncUExU_C1hS8USQuyFGp5pbJR0jBbZolbTo9D92PLF1zv3uLXDwmL1wuMCEAPHehaHHNR9UPI0hpn2XtOyQtgE493p2LMoOQzTYO_uFGxLM2lbBoSAhV7Rw9VdaHd6ruyYnGQ-Y-wbQRmxztA1A4pnx0HwOCJtZEX1dURYlqerxqzWOaLOhgkYw0dnYfNl2ZKTGBNv_3jSmnN-6O2xoAldrurtiNLgEtgKSFqNqO468eFxsiEwJAuIbOK_MBvnbkCeI-9bdVTtyUz9U3k5HbnDdQojI5Vxz-WzYmrGhy7Jb1a0RCS2dwdUMWtx7SWUSnkpTeE5m3c8Qvbr_aWiPOhhbOS3py9VhzHxPdqP-3WGCkhe5JrCRFUP1ngkG0mJN0DX6G5vJCCbGstJICPwTaVWtuqd6CQiyJB93nDNAkKKqnbvhJHex55gPUoWnRCaq6_N2CVn-xvT7Gy-RG7i02tWCbHmKx8WlhunyWPreVI6sh2DypWxJ1HOdUiunJIdoI9jpcvjXiaNAPWHN7BDN050BQTHeQ4A5Dj3dHN7CkFnFfkG8ecXLNc3OyfDDL9d4roWG328YVMV6RPPDtvmmj1pit6hY_WMNvblPn4i-WmtBUOIHZnsMvPlW5nIyuCN7OHN3y_ueq1CUFBNy-9VwAYtHuBFTxpd33eydO_yGWtcX8l3WSXy4CVeHeEldWvg4TX8BjChTT9T4IEvsINlOzoQr1MDQtfGSkd6ArNj40pSfb4PA6PiyQJARKLa8_3ScSF6EHkjnLAUMr3yDF2Rfw5spWi1RwvhuBSs5rb8hErYLV0N6cetjDdTShFlbLkEb3GgwmvUZM1JgMrmqs7DDPfehRCfDie3aCr34thQjTd3GgGg_sgFZgs2n7UWSRfZUr18KQJSHuXgblZ7MsRjO2roXGaT2F1pEJprXujLMhvECVCp0M0py1NG5u1bN6TRBLZR2z-tkO_0QV7VlEaR_KieCQoMDwG6XWhhiwKb0THq7994j79CrICfKsRRbMpSnIhkbXFRfsslQgIMaINC0MnQuOb4Wz-wqKMtWU6H11yVN6W5nPWIhFpCfUIQ_fpRN20pif3-H03yvUuFfa1_AnWku3RBdO6RIdfhbKzAjDw_GEv8eg9TQiBTk6TJvw_m40]--></g></svg>